<svg aria-hidden="true" style="position: absolute; width: 0; height: 0; overflow: hidden;" version="1.1" xmlns="http://www.w3.org/2000/svg" xmlns:xlink="http://www.w3.org/1999/xlink">
<defs>
<symbol id="icon-facebook" viewBox="0 0 32 32">
<path d="M23.446 18l0.889-5.791h-5.557v-3.758c0-1.584 0.776-3.129 3.265-3.129h2.526v-4.931c0 0-2.292-0.391-4.484-0.391-4.576 0-7.567 2.774-7.567 7.795v4.414h-5.087v5.791h5.087v14h6.261v-14h4.668z"></path>
</symbol>
<symbol id="icon-instagram" viewBox="0 0 32 32">
<path d="M16.004 7.797c-4.54 0-8.203 3.662-8.203 8.203s3.662 8.203 8.203 8.203c4.54 0 8.203-3.662 8.203-8.203s-3.662-8.203-8.203-8.203zM16.004 21.333c-2.934 0-5.333-2.391-5.333-5.333s2.392-5.333 5.333-5.333c2.941 0 5.333 2.392 5.333 5.333s-2.399 5.333-5.333 5.333zM26.455 7.462c0 1.064-0.857 1.913-1.913 1.913-1.064 0-1.913-0.857-1.913-1.913s0.857-1.913 1.913-1.913c1.057 0 1.913 0.857 1.913 1.913zM31.888 9.404c-0.121-2.563-0.707-4.833-2.584-6.703-1.87-1.87-4.141-2.456-6.703-2.584-2.641-0.15-10.558-0.15-13.2 0-2.556 0.121-4.826 0.707-6.703 2.577s-2.456 4.141-2.584 6.703c-0.15 2.641-0.15 10.558 0 13.2 0.121 2.563 0.707 4.833 2.584 6.703s4.141 2.456 6.703 2.584c2.641 0.15 10.558 0.15 13.2 0 2.563-0.121 4.833-0.707 6.703-2.584 1.87-1.87 2.456-4.141 2.584-6.703 0.15-2.641 0.15-10.551 0-13.193zM28.475 25.43c-0.557 1.399-1.635 2.477-3.041 3.041-2.106 0.835-7.103 0.642-9.43 0.642s-7.332 0.186-9.43-0.642c-1.399-0.557-2.477-1.635-3.041-3.041-0.835-2.106-0.642-7.103-0.642-9.43s-0.186-7.332 0.642-9.43c0.557-1.399 1.635-2.477 3.041-3.041 2.106-0.835 7.103-0.642 9.43-0.642s7.332-0.186 9.43 0.642c1.399 0.557 2.477 1.635 3.041 3.041 0.835 2.106 0.642 7.103 0.642 9.43s0.193 7.332-0.642 9.43z"></path>
</symbol>
<symbol id="icon-linkedin" viewBox="0 0 32 32">
<path d="M7.163 32h-6.634v-21.364h6.634v21.364zM3.842 7.721c-2.121 0-3.842-1.757-3.842-3.879 0-1.019 0.405-1.996 1.125-2.717s1.698-1.125 2.717-1.125c1.019 0 1.996 0.405 2.717 1.125s1.125 1.698 1.125 2.717c0 2.121-1.721 3.879-3.842 3.879zM31.993 32h-6.62v-10.4c0-2.478-0.050-5.657-3.449-5.657-3.449 0-3.978 2.693-3.978 5.479v10.579h-6.627v-21.364h6.363v2.914h0.093c0.886-1.679 3.049-3.45 6.277-3.45 6.714 0 7.949 4.421 7.949 10.164v11.736h-0.007z"></path>
</symbol>
<symbol id="icon-twitter" viewBox="0 0 32 32">
<path d="M28.711 9.482c0.020 0.284 0.020 0.569 0.020 0.853 0 8.67-6.599 18.66-18.66 18.66-3.716 0-7.168-1.076-10.071-2.944 0.528 0.061 1.036 0.081 1.584 0.081 3.066 0 5.888-1.036 8.142-2.802-2.883-0.061-5.3-1.949-6.132-4.548 0.406 0.061 0.812 0.102 1.239 0.102 0.589 0 1.178-0.081 1.726-0.223-3.005-0.609-5.259-3.249-5.259-6.437v-0.081c0.873 0.487 1.888 0.792 2.964 0.832-1.766-1.178-2.924-3.188-2.924-5.462 0-1.218 0.325-2.335 0.893-3.31 3.228 3.98 8.081 6.579 13.523 6.863-0.102-0.487-0.162-0.995-0.162-1.502 0-3.614 2.924-6.558 6.558-6.558 1.888 0 3.594 0.792 4.792 2.071 1.482-0.284 2.904-0.832 4.162-1.584-0.487 1.523-1.523 2.802-2.883 3.614 1.32-0.142 2.599-0.508 3.777-1.015-0.893 1.299-2.010 2.457-3.289 3.391v0z"></path>
</symbol>
</defs>
</svg>
