<svg aria-hidden="true" style="position: absolute; width: 0; height: 0; overflow: hidden;" version="1.1" xmlns="http://www.w3.org/2000/svg" xmlns:xlink="http://www.w3.org/1999/xlink"><defs><symbol id="icon-inst" viewBox="0 0 32 32"><path d="M9.404 0.096c1.706-0.079 2.25-0.096 6.596-0.096s4.89 0.019 6.595 0.096c1.705 0.077 2.868 0.349 3.887 0.743 1.066 0.403 2.033 1.033 2.833 1.847 0.815 0.799 1.443 1.764 1.844 2.832 0.396 1.018 0.666 2.182 0.745 3.884 0.079 1.709 0.096 2.253 0.096 6.598 0 4.346-0.019 4.89-0.096 6.596-0.077 1.702-0.349 2.865-0.745 3.884-0.401 1.068-1.031 2.035-1.844 2.835-0.8 0.815-1.767 1.443-2.833 1.844-1.018 0.396-2.182 0.666-3.884 0.745-1.708 0.079-2.252 0.096-6.598 0.096s-4.89-0.019-6.596-0.096c-1.702-0.077-2.865-0.349-3.884-0.745-1.068-0.402-2.035-1.031-2.835-1.844-0.814-0.799-1.444-1.766-1.846-2.833-0.394-1.018-0.665-2.182-0.743-3.884-0.079-1.709-0.096-2.253-0.096-6.598 0-4.346 0.019-4.89 0.096-6.595s0.349-2.868 0.743-3.887c0.403-1.068 1.033-2.034 1.847-2.833 0.799-0.814 1.765-1.444 2.832-1.846 1.018-0.394 2.182-0.665 3.884-0.743h0.001zM22.465 2.976c-1.687-0.077-2.193-0.093-6.465-0.093s-4.778 0.016-6.465 0.093c-1.561 0.071-2.407 0.332-2.972 0.551-0.746 0.291-1.28 0.636-1.84 1.196-0.531 0.516-0.939 1.145-1.196 1.84-0.22 0.564-0.48 1.411-0.551 2.972-0.077 1.687-0.093 2.193-0.093 6.465s0.016 4.778 0.093 6.465c0.071 1.561 0.332 2.407 0.551 2.972 0.256 0.694 0.665 1.324 1.196 1.84 0.516 0.531 1.146 0.94 1.84 1.196 0.564 0.22 1.411 0.48 2.972 0.551 1.687 0.077 2.192 0.093 6.465 0.093s4.778-0.016 6.465-0.093c1.561-0.071 2.407-0.332 2.972-0.551 0.746-0.291 1.28-0.636 1.84-1.196 0.531-0.516 0.94-1.146 1.196-1.84 0.22-0.564 0.48-1.411 0.551-2.972 0.077-1.687 0.093-2.193 0.093-6.465s-0.016-4.778-0.093-6.465c-0.071-1.561-0.332-2.407-0.551-2.972-0.291-0.746-0.636-1.28-1.196-1.84-0.516-0.531-1.145-0.939-1.84-1.196-0.564-0.22-1.411-0.48-2.972-0.551zM13.956 20.932c1.141 0.475 2.412 0.539 3.595 0.181s2.206-1.115 2.893-2.143c0.687-1.028 0.996-2.262 0.873-3.493s-0.668-2.38-1.543-3.253c-0.558-0.558-1.233-0.985-1.976-1.251s-1.536-0.363-2.321-0.286c-0.785 0.077-1.544 0.328-2.221 0.734s-1.255 0.957-1.694 1.613c-0.438 0.656-0.726 1.401-0.842 2.182s-0.057 1.577 0.172 2.333 0.622 1.45 1.152 2.035c0.53 0.585 1.183 1.045 1.912 1.347zM10.185 10.185c0.764-0.764 1.67-1.369 2.668-1.783s2.067-0.626 3.147-0.626 2.149 0.213 3.147 0.626c0.998 0.413 1.904 1.019 2.668 1.783s1.369 1.67 1.783 2.668c0.413 0.998 0.626 2.067 0.626 3.147s-0.213 2.149-0.626 3.147c-0.413 0.998-1.019 1.904-1.783 2.668-1.542 1.542-3.634 2.409-5.815 2.409s-4.273-0.866-5.815-2.409c-1.542-1.542-2.409-3.634-2.409-5.815s0.866-4.273 2.409-5.815zM26.048 9.001c0.189-0.179 0.341-0.393 0.445-0.631s0.161-0.495 0.165-0.755c0.004-0.26-0.045-0.518-0.142-0.759s-0.243-0.46-0.427-0.644-0.403-0.329-0.644-0.427c-0.241-0.098-0.499-0.146-0.759-0.142s-0.517 0.060-0.755 0.165c-0.238 0.105-0.453 0.256-0.631 0.446-0.347 0.368-0.537 0.857-0.53 1.363s0.212 0.989 0.569 1.347 0.841 0.562 1.347 0.569c0.506 0.007 0.995-0.183 1.363-0.53z"></path></symbol><symbol id="icon-reddit" viewBox="0 0 32 32"><path d="M16 32c8.837 0 16-7.163 16-16s-7.163-16-16-16c-8.837 0-16 7.163-16 16s7.163 16 16 16z"></path><path fill="#fff" style="fill: var(--color2, #fff)" d="M26.88 16.17c0-1.304-1.071-2.362-2.39-2.362-0.65 0-1.224 0.246-1.644 0.661-1.625-1.153-3.882-1.909-6.367-2.003l1.090-5.046 3.537 0.737c0.038 0.888 0.784 1.606 1.702 1.606 0.937 0 1.702-0.756 1.702-1.682s-0.765-1.682-1.702-1.682c-0.669 0-1.243 0.378-1.511 0.945l-3.958-0.832c-0.115-0.019-0.229 0-0.325 0.057s-0.153 0.151-0.191 0.265l-1.205 5.632c-2.543 0.076-4.819 0.813-6.463 2.003-0.421-0.397-1.013-0.661-1.644-0.661-1.319 0-2.39 1.058-2.39 2.362 0 0.964 0.574 1.776 1.415 2.154-0.038 0.227-0.057 0.472-0.057 0.718 0 3.628 4.264 6.557 9.542 6.557s9.541-2.929 9.541-6.557c0-0.246-0.019-0.472-0.057-0.699 0.784-0.378 1.377-1.209 1.377-2.173zM10.531 17.852c0-0.926 0.765-1.682 1.702-1.682s1.702 0.756 1.702 1.682c0 0.926-0.765 1.682-1.702 1.682s-1.702-0.756-1.702-1.682zM20.035 22.293c-1.166 1.153-3.384 1.228-4.035 1.228s-2.887-0.095-4.035-1.228c-0.172-0.17-0.172-0.453 0-0.624s0.459-0.17 0.631 0c0.727 0.718 2.295 0.983 3.423 0.983s2.677-0.265 3.423-0.983c0.172-0.17 0.459-0.17 0.631 0 0.134 0.189 0.134 0.454-0.038 0.624zM19.729 19.534c-0.937 0-1.702-0.756-1.702-1.682s0.765-1.682 1.702-1.682c0.937 0 1.702 0.756 1.702 1.682s-0.765 1.682-1.702 1.682z"></path></symbol><symbol id="icon-behance" viewBox="0 0 32 32"><path d="M5.333 0h21.333c2.946 0 5.333 2.388 5.333 5.333v21.333c0 2.946-2.388 5.333-5.333 5.333h-21.333c-2.946 0-5.333-2.388-5.333-5.333v-21.333c0-2.946 2.388-5.333 5.333-5.333z"></path><path fill="#fff" style="fill: var(--color2, #fff)" d="M12.175 9.66c0.608 0 1.17 0.043 1.685 0.173 0.515 0.087 0.938 0.265 1.314 0.481s0.654 0.525 0.845 0.919c0.185 0.395 0.284 0.876 0.284 1.401 0 0.611-0.139 1.136-0.469 1.53-0.284 0.395-0.747 0.746-1.314 1.006 0.799 0.216 1.407 0.611 1.778 1.136s0.608 1.179 0.608 1.925c0 0.611-0.139 1.136-0.376 1.574-0.232 0.438-0.608 0.833-1.031 1.092-0.423 0.265-0.938 0.481-1.5 0.611s-1.123 0.216-1.685 0.216l-6.276 0.011v-12.076h6.137zM11.799 14.56c0.515 0 0.938-0.13 1.262-0.351s0.469-0.611 0.469-1.092c0-0.265-0.046-0.525-0.139-0.698s-0.232-0.308-0.423-0.438c-0.185-0.087-0.376-0.173-0.608-0.216s-0.469-0.043-0.747-0.043h-2.716v2.845c0-0.005 2.901-0.005 2.901-0.005zM11.938 19.724c0.284 0 0.562-0.043 0.799-0.087 0.232-0.043 0.469-0.13 0.654-0.265s0.33-0.265 0.469-0.481c0.093-0.216 0.185-0.481 0.185-0.789 0-0.611-0.185-1.049-0.562-1.357-0.376-0.265-0.892-0.395-1.5-0.395h-3.086v3.369h3.040v0.005z"></path><path fill="#fff" style="fill: var(--color2, #fff)" d="M20.971 19.997c0.342 0.349 0.853 0.521 1.531 0.521 0.468 0 0.895-0.129 1.237-0.349 0.342-0.263 0.553-0.521 0.637-0.785h2.084c-0.342 1.042-0.853 1.784-1.531 2.262-0.679 0.435-1.489 0.693-2.468 0.693-0.679 0-1.279-0.129-1.831-0.349-0.553-0.215-0.979-0.521-1.363-0.956-0.384-0.392-0.679-0.87-0.853-1.435-0.211-0.564-0.3-1.171-0.3-1.87 0-0.65 0.084-1.263 0.3-1.827s0.511-1.042 0.895-1.478c0.384-0.392 0.853-0.742 1.363-0.957 0.553-0.215 1.105-0.349 1.789-0.349 0.726 0 1.363 0.129 1.916 0.435s0.979 0.65 1.321 1.171c0.342 0.478 0.595 1.042 0.768 1.65 0.084 0.607 0.126 1.22 0.084 1.913h-6.173c0 0.709 0.253 1.359 0.595 1.709zM23.655 15.43c-0.3-0.306-0.768-0.478-1.321-0.478-0.384 0-0.679 0.086-0.937 0.215s-0.426 0.306-0.595 0.478c-0.168 0.172-0.258 0.392-0.3 0.607s-0.084 0.392-0.084 0.564h3.831c-0.084-0.645-0.3-1.080-0.595-1.386zM19.908 10.868h4.768v1.171h-4.768v-1.171z"></path></symbol><symbol id="icon-youtube" viewBox="0 0 32 32"><path fill="#fff" style="fill: var(--color2, #fff)" d="M12.8 20.679v-9.358l8.32 4.679-8.32 4.679z"></path><path d="M31.325 8.495c-0.182-0.659-0.539-1.26-1.034-1.743s-1.112-0.83-1.789-1.008c-2.491-0.657-12.502-0.657-12.502-0.657s-10.011 0-12.502 0.657c-0.676 0.177-1.293 0.525-1.789 1.008s-0.852 1.084-1.034 1.743c-0.465 2.476-0.691 4.988-0.674 7.505-0.017 2.517 0.209 5.030 0.674 7.505 0.182 0.659 0.539 1.26 1.034 1.743s1.112 0.83 1.789 1.008c2.491 0.657 12.502 0.657 12.502 0.657s10.011 0 12.502-0.657c0.677-0.177 1.293-0.525 1.789-1.008s0.852-1.084 1.034-1.743c0.465-2.476 0.691-4.988 0.674-7.505 0.017-2.517-0.209-5.030-0.674-7.505zM12.8 20.677v-9.354l8.308 4.677-8.308 4.677z"></path></symbol><symbol id="icon-facebook" viewBox="0 0 32 32"><path d="M32 16c0 8.837-7.163 16-16 16s-16-7.163-16-16c0-8.837 7.163-16 16-16s16 7.163 16 16z"></path><path fill="#fff" style="fill: var(--color2, #fff)" d="M13.44 20.8v10.88c0 0.177 0.143 0.32 0.32 0.32h4.48c0.177 0 0.32-0.143 0.32-0.32v-10.88c0-0.177 0.143-0.32 0.32-0.32h3.2c0.177 0 0.32-0.143 0.32-0.32v-3.84c0-0.177-0.143-0.32-0.32-0.32h-3.2c-0.177 0-0.32-0.143-0.32-0.32v-2.88c0-1.28 1.6-1.92 2.24-1.92h1.92c0.177 0 0.32-0.143 0.32-0.32v-3.84c0-0.177-0.143-0.32-0.32-0.32h-4.16c-3.072 0-5.12 3.2-5.12 5.12v4.16c0 0.177-0.143 0.32-0.32 0.32h-3.2c-0.177 0-0.32 0.143-0.32 0.32v3.84c0 0.177 0.143 0.32 0.32 0.32h3.2c0.177 0 0.32 0.143 0.32 0.32z"></path></symbol><symbol id="icon-logo" viewBox="0 0 32 32"><path d="M4.4 0h23.2c2.43 0 4.4 1.97 4.4 4.4v23.2c0 2.43-1.97 4.4-4.4 4.4h-23.2c-2.43 0-4.4-1.97-4.4-4.4v-23.2c0-2.43 1.97-4.4 4.4-4.4z"></path><path fill="#fff" style="fill: var(--color2, #fff)" d="M4.672 14.066v-6.72h3.437c0.883 0 1.542 0.163 1.978 0.49 0.435 0.32 0.653 0.742 0.653 1.267 0 0.346-0.093 0.65-0.278 0.912-0.179 0.256-0.435 0.461-0.768 0.614-0.326 0.147-0.717 0.221-1.171 0.221l0.192-0.461c0.474 0 0.886 0.074 1.238 0.221 0.352 0.141 0.624 0.349 0.816 0.624 0.198 0.269 0.298 0.598 0.298 0.989 0 0.582-0.237 1.037-0.71 1.363-0.467 0.32-1.152 0.48-2.054 0.48h-3.629zM6.554 12.693h1.594c0.326 0 0.573-0.054 0.739-0.163 0.173-0.115 0.259-0.288 0.259-0.518s-0.086-0.4-0.259-0.509c-0.166-0.115-0.413-0.173-0.739-0.173h-1.728v-1.315h1.44c0.32 0 0.56-0.054 0.72-0.163s0.24-0.272 0.24-0.49c0-0.218-0.080-0.378-0.24-0.48-0.16-0.109-0.4-0.163-0.72-0.163h-1.306v3.974zM13.797 9.947h3.12v1.421h-3.12v-1.421zM13.932 12.597h3.514v1.469h-5.395v-6.72h5.27v1.469h-3.389v3.782zM4.672 23.666v-6.72h3.072c0.614 0 1.142 0.099 1.584 0.298 0.448 0.198 0.794 0.486 1.037 0.864 0.243 0.371 0.365 0.813 0.365 1.325 0 0.506-0.122 0.944-0.365 1.315s-0.589 0.659-1.037 0.864c-0.442 0.198-0.97 0.298-1.584 0.298h-2.016l0.845-0.826v2.582h-1.901zM6.573 21.285l-0.845-0.874h1.901c0.397 0 0.691-0.086 0.883-0.259 0.198-0.173 0.298-0.413 0.298-0.72 0-0.314-0.099-0.557-0.298-0.73-0.192-0.173-0.486-0.259-0.883-0.259h-1.901l0.845-0.874v3.715zM11.656 23.666v-6.72h3.072c0.614 0 1.142 0.099 1.584 0.298 0.448 0.198 0.794 0.486 1.037 0.864 0.243 0.371 0.365 0.813 0.365 1.325 0 0.506-0.122 0.944-0.365 1.315-0.243 0.365-0.589 0.646-1.037 0.845-0.442 0.192-0.97 0.288-1.584 0.288h-2.016l0.845-0.797v2.582h-1.901zM15.813 23.666l-1.67-2.448h2.026l1.68 2.448h-2.035zM13.557 21.285l-0.845-0.874h1.901c0.397 0 0.691-0.086 0.883-0.259 0.198-0.173 0.298-0.413 0.298-0.72 0-0.314-0.099-0.557-0.298-0.73-0.192-0.173-0.486-0.259-0.883-0.259h-1.901l0.845-0.874v3.715zM22.151 23.8c-0.538 0-1.034-0.086-1.488-0.259s-0.851-0.416-1.19-0.73c-0.333-0.32-0.592-0.691-0.778-1.114s-0.278-0.886-0.278-1.392c0-0.506 0.093-0.97 0.278-1.392s0.445-0.79 0.778-1.104c0.339-0.32 0.736-0.566 1.19-0.739s0.95-0.259 1.488-0.259c0.544 0 1.040 0.086 1.488 0.259 0.454 0.173 0.848 0.419 1.181 0.739 0.333 0.314 0.592 0.682 0.778 1.104 0.192 0.422 0.288 0.886 0.288 1.392s-0.096 0.973-0.288 1.402c-0.186 0.422-0.445 0.79-0.778 1.104s-0.726 0.557-1.181 0.73c-0.448 0.173-0.944 0.259-1.488 0.259zM22.151 22.226c0.256 0 0.493-0.045 0.71-0.134 0.224-0.090 0.416-0.218 0.576-0.384 0.166-0.173 0.294-0.378 0.384-0.614 0.096-0.237 0.144-0.499 0.144-0.787 0-0.294-0.048-0.557-0.144-0.787-0.090-0.237-0.218-0.438-0.384-0.605-0.16-0.173-0.352-0.304-0.576-0.394-0.218-0.090-0.454-0.134-0.71-0.134s-0.496 0.045-0.72 0.134c-0.218 0.090-0.41 0.221-0.576 0.394-0.16 0.166-0.288 0.368-0.384 0.605-0.090 0.23-0.134 0.493-0.134 0.787 0 0.288 0.045 0.55 0.134 0.787 0.096 0.237 0.224 0.442 0.384 0.614 0.166 0.166 0.358 0.294 0.576 0.384 0.224 0.090 0.464 0.134 0.72 0.134z"></path></symbol><symbol id="icon-plus" viewBox="0 0 32 32"><path fill="none" stroke="#fff" style="stroke: var(--color2, #fff)" stroke-linejoin="round" stroke-linecap="round" stroke-miterlimit="4" stroke-width="3.9024" d="M4.98 16h21.407"></path><path fill="none" stroke="#fff" style="stroke: var(--color2, #fff)" stroke-linejoin="round" stroke-linecap="round" stroke-miterlimit="4" stroke-width="3.9024" d="M15.684 5.268v21.463"></path></symbol><symbol id="icon-minus" viewBox="0 0 32 32"><path fill="none" stroke="#fff" style="stroke: var(--color2, #fff)" stroke-linejoin="round" stroke-linecap="round" stroke-miterlimit="4" stroke-width="4" d="M5 16h22"></path></symbol><symbol id="icon-chart-bar" viewBox="0 0 32 32"><path fill="none" stroke="#fff" style="stroke: var(--color2, #fff)" stroke-linejoin="round" stroke-linecap="round" stroke-miterlimit="4" stroke-width="1.8028" d="M5.648 25.957v-8.878h6.901"></path><path fill="none" stroke="#fff" style="stroke: var(--color2, #fff)" stroke-linejoin="round" stroke-linecap="round" stroke-miterlimit="4" stroke-width="1.8028" d="M28.324 25.957h-24.648"></path><path fill="none" stroke="#fff" style="stroke: var(--color2, #fff)" stroke-linejoin="round" stroke-linecap="round" stroke-miterlimit="4" stroke-width="1.8028" d="M12.549 25.957v-14.796h6.901"></path><path fill="none" stroke="#fff" style="stroke: var(--color2, #fff)" stroke-linejoin="round" stroke-linecap="round" stroke-miterlimit="4" stroke-width="1.8028" d="M26.352 5.243h-6.901v20.715h6.901v-20.715z"></path></symbol><symbol id="icon-check" viewBox="0 0 32 32"><path fill="none" stroke="#fff" style="stroke: var(--color2, #fff)" stroke-linejoin="round" stroke-linecap="round" stroke-miterlimit="4" stroke-width="3.1549" d="M26.845 9.188l-13.803 13.81-6.901-6.905"></path></symbol><symbol id="icon-book-open" viewBox="0 0 32 32"><path fill="none" stroke="#fff" style="stroke: var(--color2, #fff)" stroke-linejoin="round" stroke-linecap="round" stroke-miterlimit="4" stroke-width="1.8028" d="M16 11.161c0-1.046 0.416-2.050 1.155-2.79s1.743-1.156 2.789-1.156h7.887c0.262 0 0.512 0.104 0.697 0.289s0.289 0.436 0.289 0.697v15.783c0 0.262-0.104 0.512-0.289 0.697s-0.436 0.289-0.697 0.289h-7.887c-1.046 0-2.049 0.416-2.789 1.156s-1.155 1.744-1.155 2.79"></path><path fill="none" stroke="#fff" style="stroke: var(--color2, #fff)" stroke-linejoin="round" stroke-linecap="round" stroke-miterlimit="4" stroke-width="1.8028" d="M3.183 23.985c0 0.262 0.104 0.512 0.289 0.697s0.436 0.289 0.697 0.289h7.887c1.046 0 2.049 0.416 2.789 1.156s1.155 1.744 1.155 2.79v-17.755c0-1.046-0.415-2.050-1.155-2.79s-1.743-1.156-2.789-1.156h-7.887c-0.261 0-0.512 0.104-0.697 0.289s-0.289 0.436-0.289 0.697v15.783z"></path></symbol><symbol id="icon-modal-3" viewBox="0 0 32 32"><path fill="#000" style="fill: var(--color1, #000)" d="M18.001 23.988c0.26-2.012-0.693-5.359-1.037-6.278s-0.724-2.341-0.675-2.873-1.579-2.337-1.579-2.337c-0.042 0.019-0.082 0.042-0.12 0.069l-3.632 0.256c0 0-1.777 1.947-0.605 4.933 0.291 0.741 0.098 1.453-0.39 1.839s-1.276 2.034-0.343 3.099c0.933 1.065 0.785 2.372 0.39 3.195s-1.080 1.985 0.441 3.485h2.111c0 0 0.687-1.743 1.129-2.661 0.29-0.604 0.706-1.875 0.834-3.43 0.209 0.302 0.441 0.573 0.645 0.835 0.659 0.844 0.321 1.047-0.023 2.791s0.945 2.402 0.945 2.402l1.777-0.065c0.341-0.679-0.057-3.818 0.132-5.259z"></path><path fill="#000" style="fill: var(--color1, #000)" d="M11.088 12.895l0.189-1.212 0.192 0.030-0.152 0.969 3.376-0.251-0.167-0.915 0.191-0.035 0.207 1.128-3.836 0.286z"></path><path fill="#fff" style="fill: var(--color2, #fff)" d="M11.254 29.481c-0.571-0.493-0.501-2.302-0.016-2.986 0.415-0.584 0.715-2.814-0.247-3.635-0.317-0.271-0.489-0.6-0.51-0.978-0.042-0.767 0.536-1.558 1.029-2.083 0.738-0.789 0.184-2.22 0.178-2.235l0.181-0.071c0.025 0.065 0.605 1.558-0.217 2.439-0.382 0.409-1.018 1.204-0.975 1.94 0.018 0.325 0.167 0.605 0.442 0.841 1.054 0.902 0.735 3.254 0.28 3.894-0.426 0.6-0.506 2.302-0.016 2.726l-0.129 0.148z"></path><path fill="#fff" style="fill: var(--color2, #fff)" d="M12.658 29.385l-0.175-0.086c1.38-2.791 1.852-5.185 2.006-6.701 0.195-1.939-0.036-3.292-0.296-3.861-0.6-1.315-0.156-2.981-0.137-3.051l0.189 0.051c-0.005 0.017-0.444 1.67 0.126 2.921 0.562 1.23 0.883 5.473-1.713 10.726z"></path><path fill="#000" style="fill: var(--color1, #000)" d="M12.121 31.257l0.79-2.012h-2.879l0.13 2.531 0.010 0.195h0.36l0.065-0.195 0.072-0.211 0.214 0.211 0.13 0.13h1.919v-0.649h-0.81zM10.586 31.208l-0.192 0.568h-0.035l-0.121-2.337h2.387l-0.79 2.012h0.901v0.26h-1.64l-0.51-0.503z"></path><path fill="#000" style="fill: var(--color1, #000)" d="M17.519 31.192l0.79-2.012h-2.879l0.135 2.596 0.006 0.13h0.363l0.044-0.13 0.093-0.276 0.28 0.276 0.065 0.065h1.915v-0.649h-0.813zM15.984 31.144l-0.192 0.568h-0.035l-0.122-2.337h2.387l-0.787 2.012h0.901v0.26h-1.642l-0.51-0.503z"></path><path fill="#426c93" style="fill: var(--color3, #426c93)" d="M12.455 7.859c-0.026 0.080-0.064 0.156-0.113 0.224-0.038 0.054-0.080 0.106-0.126 0.155l-0.135-0.073-0.033-0.032c0.044-0.044 0.084-0.092 0.122-0.142 0.089-0.121 0.126-0.227 0.109-0.312-0.021-0.074-0.073-0.136-0.144-0.168l0.075-0.179c0.129 0.056 0.225 0.168 0.26 0.304 0.014 0.075 0.008 0.152-0.016 0.224z"></path><path fill="#426c93" style="fill: var(--color3, #426c93)" d="M12.912 10.876c-0.1 0.1-0.236 0.153-0.377 0.149-0.455 0-1.005-0.443-1.035-0.467l0.123-0.151c0.228 0.186 0.878 0.608 1.15 0.332l0.138 0.137z"></path><path fill="#426c93" style="fill: var(--color3, #426c93)" d="M14.403 9.196c-0.008 0.017-0.018 0.033-0.029 0.048l-0.159-0.114c0.006-0.008 0.011-0.018 0.016-0.027l0.172 0.093z"></path><path fill="#426c93" style="fill: var(--color3, #426c93)" d="M13.293 9.743c-0.025 0.029-0.055 0.053-0.089 0.069-0.040 0.021-0.085 0.033-0.13 0.035h-0.022c-0.347 0-0.845-0.458-0.904-0.511l0.13-0.142c0.195 0.18 0.568 0.459 0.77 0.459h0.012c0.029 0 0.056-0.012 0.075-0.033l0.158 0.123z"></path><path fill="#426c93" style="fill: var(--color3, #426c93)" d="M14.953 10.174l-0.056 0.186c-0.055-0.018-0.116-0.011-0.165 0.020-0.181 0.104-0.305 0.449-0.352 0.619-0.005 0.017-0.008 0.032-0.011 0.045l-0.094-0.021-0.095-0.022c0.014-0.065 0.149-0.611 0.455-0.789 0.096-0.057 0.211-0.071 0.317-0.038z"></path><path fill="#000" style="fill: var(--color1, #000)" d="M30.986 31.776h-29.972v0.195h29.972v-0.195z"></path><path fill="#000" style="fill: var(--color1, #000)" d="M5.1 31.971c0.195 0.065 4.297 0 4.297 0s0.178-1.168-1.006-1.493c-1.185-0.324-0.988-0.26-1.053-1.882s-0.395-4.154-1.382-2.856c-0.987 1.298-0.461 2.856-1.382 3.635s-1.317 1.168-1.317 2.596h1.843z"></path><path fill="#000" style="fill: var(--color1, #000)" d="M19.973 5.224l-0.231-0.021-0.531-0.729-0.372-0.51-4.5 2.678-2.517-1.242-1.578 1.769 0.929 0.502c-0.13 0.766-0.512 2.736-0.784 4.116l-0.025 0.13 5.527-0.491-0.12-0.735-0.285-1.744 1.229 0.529 1.486 0.645 2.675-4.813-0.903-0.084zM10.553 7.115l1.315-1.475 0.13 0.065 2.348 1.159 4.438-2.642 1.071 1.467-2.279 1.506-0.361 0.241-0.031 0.019-0.181 0.12-2.521 1.664-0.086-0.047-0.171-0.093-3.673-1.985zM15.581 10.73l0.085 0.519-5.062 0.448c0.148-0.752 0.585-2.986 0.748-3.929l3.14 1.697 0.796-0.526 0.294 1.791zM18.113 9.872l-2.555-1.109 4.576-3.022-0.24-0.328 0.666 0.061-2.448 4.397z"></path><path fill="#000" style="fill: var(--color1, #000)" d="M20.876 3.152l-0.527 0.909h-0.123l0.26-0.584h-0.531l-0.616 0.879-0.118 0.119-0.112 0.113 0.455 0.598 0.137 0.181 0.124-0.065 0.158-0.080 0.677-0.34 1.394-1.73h-1.178zM20.541 4.73l-0.777 0.389-0.39-0.516 0.117-0.117 0.568-0.815h0.13l-0.263 0.584h0.536l0.527-0.909h0.662l-1.11 1.383z"></path><path fill="#426c93" style="fill: var(--color3, #426c93)" d="M12.851 6.898l-0.166 0.104c-0.275-0.434-0.771-0.173-0.792-0.161l-0.094-0.171c0.235-0.127 0.755-0.243 1.052 0.228z"></path><path fill="#426c93" style="fill: var(--color3, #426c93)" d="M13.535 8.205c-0.068 0.033-0.143 0.050-0.219 0.049-0.319 0-0.68-0.251-0.861-0.395-0.055-0.043-0.094-0.077-0.108-0.091l0.121-0.134 0.010-0.010c0.177 0.159 0.696 0.542 0.971 0.407l0.086 0.174z"></path><path fill="#426c93" style="fill: var(--color3, #426c93)" d="M16.484 7.107c-0.049 0.017-0.101 0.025-0.153 0.025-0.031 0-0.062-0.003-0.092-0.008-0.2-0.034-0.38-0.174-0.503-0.294-0.059-0.057-0.113-0.119-0.163-0.184l0.157-0.116c0.038 0.051 0.080 0.099 0.125 0.144 0.118 0.119 0.287 0.25 0.451 0.264 0.040 0.004 0.081-0.001 0.12-0.013l0.034 0.103 0.025 0.080z"></path><path fill="#426c93" style="fill: var(--color3, #426c93)" d="M17.69 5.606c-0.588 0.336-1.093 0.732-1.079 0.848l-0.175 0.086c-0.151-0.298 0.661-0.819 1.157-1.103l0.097 0.17z"></path><path fill="#426c93" style="fill: var(--color3, #426c93)" d="M18.536 5.554c-0.007 0.172-0.061 0.338-0.157 0.48l-0.082-0.065-0.073-0.055c0.080-0.125 0.122-0.27 0.121-0.419 0.003-0.074 0-0.149-0.008-0.223l0.193-0.027c0.012 0.102 0.015 0.206 0.007 0.308z"></path>
<path fill="#426c93" style="fill: var(--color3, #426c93)" d="M17.515 6.689c-0.049 0.055-0.307 0.346-0.588 0.611-0.050 0.047-0.101 0.093-0.151 0.137-0.189 0.164-0.373 0.297-0.5 0.325l-0.038-0.191c0.080-0.016 0.211-0.107 0.36-0.235 0.049-0.042 0.101-0.088 0.153-0.136 0.218-0.203 0.455-0.449 0.617-0.636l0.147 0.126z"></path><path fill="#426c93" style="fill: var(--color3, #426c93)" d="M11.627 7.187l-0.087 0.174c-0.26-0.13-0.278-0.423-0.25-0.561l0.191 0.038c-0.002 0.014-0.046 0.254 0.145 0.349z"></path><path fill="#426c93" style="fill: var(--color3, #426c93)" d="M11.579 9.467l-0.116 0.157c-0.313-0.232 0.031-0.954 0.103-1.096l0.174 0.088c-0.148 0.284-0.298 0.752-0.161 0.851z"></path><path fill="#426c93" style="fill: var(--color3, #426c93)" d="M11.816 10.948l-0.072 0.182c-0.144-0.062-0.312-0.022-0.413 0.098l-0.155-0.118c0.154-0.19 0.415-0.256 0.64-0.162z"></path><path fill="#426c93" style="fill: var(--color3, #426c93)" d="M17.69 9.262c-0.256 0-0.554-0.325-0.585-0.365l0.146-0.13c0.112 0.126 0.32 0.3 0.441 0.3h0.005c0.026 0.001 0.051-0.012 0.065-0.034l0.155 0.118c-0.049 0.068-0.127 0.109-0.211 0.111h-0.016z"></path><path fill="#426c93" style="fill: var(--color3, #426c93)" d="M17.68 8.219c-0.033-0.080-0.030-0.17 0.006-0.249 0.121-0.269 0.59-0.445 0.644-0.463l0.065 0.183c-0.17 0.065-0.466 0.214-0.531 0.36-0.016 0.030-0.017 0.065-0.004 0.097l-0.18 0.073z"></path><path fill="#426c93" style="fill: var(--color3, #426c93)" d="M18.761 8.057l-0.137-0.139c0.195-0.195 0.283-0.77 0.3-0.977l0.195 0.017c-0.008 0.083-0.077 0.822-0.358 1.1z"></path><path fill="#426c93" style="fill: var(--color3, #426c93)" d="M16.425 8.726c-0.068-0.271 0.181-0.448 0.325-0.504l0.072 0.181c-0.010 0.005-0.248 0.103-0.205 0.275l-0.192 0.048z"></path><path fill="#426c93" style="fill: var(--color3, #426c93)" d="M19.579 6.95h-0.195c0-0.145 0.119-0.389 0.142-0.434l0.174 0.088c-0.051 0.099-0.122 0.272-0.122 0.345z"></path><path fill="#426c93" style="fill: var(--color3, #426c93)" d="M13.579 10.995l-0.173 0.088-0.198-0.389 0.174-0.088 0.197 0.389z"></path><path fill="#000" style="fill: var(--color1, #000)" d="M29.611 28.631c-0.227-0.229-0.564-0.282-1.003-0.156-0.65 0.185-1.266 0.459-1.762 0.679-0.535 0.237-1.088 0.482-1.214 0.371-0.027-0.023-0.077-0.113 0.025-0.454 0.076-0.251 0.181-0.547 0.293-0.86 0.397-1.103 0.806-2.249 0.404-2.664-0.166-0.171-0.434-0.195-0.82-0.071-1.078 0.345-1.904 1.052-2.106 1.802-0.103 0.383-0.024 0.743 0.221 1.012 0.099 0.109 0.105 0.165 0.102 0.173s-0.043 0.035-0.17 0.030c-0.494-0.022-1.545-0.529-1.885-1.46-0.15-0.412-0.401-0.479-0.536-0.482-0.302-0.007-0.621 0.276-0.81 0.722-0.395 0.933-0.255 2.48 1.323 4.018l0.029 0.028h7.961l0.021-0.069c0.024-0.077 0.577-1.964-0.072-2.619zM29.517 31.127h-7.73c-1.481-1.461-1.619-2.907-1.252-3.776 0.153-0.362 0.401-0.603 0.618-0.603h0.007c0.149 0.004 0.276 0.13 0.358 0.354 0.386 1.061 1.55 1.564 2.058 1.588 0.231 0.010 0.321-0.071 0.354-0.142 0.049-0.105 0.004-0.234-0.134-0.386-0.202-0.222-0.263-0.509-0.177-0.831 0.185-0.688 0.96-1.342 1.977-1.667 0.304-0.097 0.513-0.090 0.621 0.021 0.317 0.328-0.107 1.512-0.447 2.463-0.113 0.315-0.22 0.614-0.297 0.869-0.103 0.343-0.092 0.545 0.033 0.654 0.22 0.195 0.698-0.018 1.422-0.339 0.487-0.216 1.099-0.489 1.733-0.671 0.365-0.105 0.638-0.068 0.811 0.106 0.505 0.51 0.136 2.017 0.044 2.36z"></path><path class="rec" fill="#426c93" style="fill: var(--color3, #426c93)" d="M24.543 12.304l-4.888 1.094 1.099 4.883 4.888-1.094-1.099-4.883z"></path><path class="rec" fill="#000" style="fill: var(--color1, #000)" d="M23.046 17.757l-0.476-2.614-3.833 0.697 0.691 3.798 3.836-0.695-0.218-1.186zM19.586 19.408l-0.621-3.415 3.451-0.625 0.442 2.431 0.179 0.985-3.451 0.625z"></path><path fill="#000" style="fill: var(--color1, #000)" d="M15.039 5.554c-0.332-0.164-0.338-1.103-0.332-1.403l0.233 0.043c0 0 0.757-1.213-1.281-1.52 0 0-0.023-0.009-0.061-0.021 0.127-0.516-0.157-1.044-0.658-1.224s-1.057 0.046-1.289 0.524c-0.232 0.478-0.066 1.054 0.386 1.335-0.019 0.011-0.036 0.025-0.051 0.041-0.218 0.221-0.157 0.364-0.127 0.674s-0.21 0.18-0.455 0.309c-0.245 0.129-0.566 0.311-0.213 0.549l1.119 0.417-0.195 0.269-0.081 0.11c-0.012 0.016-0.022 0.033-0.032 0.051l0.175 0.086c0.004-0.008 0.009-0.016 0.014-0.023l0.309-0.423 0.756 0.282c0.054-0.067 0.098-0.143 0.13-0.223 0.050 0.027 0.102 0.048 0.155 0.065l-0.053 0.519c-0.024 0.065-0.047 0.133-0.068 0.203s-0.036 0.13-0.049 0.195l0.074 0.036 0.904 0.446 0.863-0.514c0.005-0.016 0.009-0.032 0.013-0.047 0.031-0.113 0.060-0.195 0.073-0.232 0.068-0.199 0.133-0.328-0.261-0.523zM13.426 5.206c-0.003-0.070-0.030-0.137-0.076-0.191-0.216-0.26-0.399-0.465-0.195-0.602s0.199-0.356 0.103-0.548l-0.003-0.006c-0.023-0.047-0.008-0.104 0.034-0.134s0.102-0.025 0.138 0.012l0.232 0.223 0.719 0.13c-0.006 0.377-0.080 0.934-0.432 1.155-0.166 0.105-0.352 0.064-0.52-0.039z"></path><path fill="#000" style="fill: var(--color1, #000)" d="M21.377 1.001l-0.385 0.044c-0.092 0.011-0.183 0.031-0.271 0.058l-0.606-1.103c0 0-0.311 0.584-0.308 1.083l-0.817-0.138c0 0 0.341 0.771 0.821 1.013-0.084 0.218-0.114 0.453-0.087 0.685l0.385-0.044c0.792-0.092 1.359-0.807 1.268-1.598z"></path><path fill="#426c93" style="fill: var(--color3, #426c93)" d="M21.345 1.17l0.767 0.165-0.845 0.195 0.079-0.36z"></path><path fill="#426c93" style="fill: var(--color3, #426c93)" d="M14.511 8.053h-0.195c0-0.23-0.309-0.423-0.559-0.534-0.074-0.034-0.15-0.063-0.228-0.087l0.057-0.186 0.012 0.004c0.112 0.036 0.913 0.309 0.913 0.804z"></path><path fill="#426c93" style="fill: var(--color3, #426c93)" d="M15.601 7.594l-0.137 0.139c-0.062-0.060-0.127-0.117-0.195-0.17-0.034-0.027-0.069-0.053-0.104-0.079s-0.081-0.060-0.121-0.088c-0.187-0.13-0.35-0.231-0.352-0.233l0.103-0.166c0.008 0.005 0.092 0.056 0.206 0.133l0.127 0.087 0.096 0.065c0.133 0.096 0.259 0.2 0.377 0.313z"></path></symbol><symbol id="icon-modal-2" viewBox="0 0 32 32">
<path fill="#000" d="M15.322 15.096h-2.29v0.98h2.29v-0.98z"></path>
<path fill="#000" style="fill: var(--color1, #000)" d="M14.736 11.93c0 0-2.157 1.094-0.914 2.991 0 0 1.166 0.737 0.708 1.979s0.327 2.614 1.374 3.203c0 0 0.786 0.849 0.393 2.156s0.013 1.128 0.013 1.128h5.178l-4.997-8.121 0.327-1.372-2.083-1.964z"></path><path fill="#000" style="fill: var(--color1, #000)" d="M20.626 22.068l1.533-6.108-5.493-1.495-0.762 0.355 4.722 7.248z"></path><path fill="#000" style="fill: var(--color1, #000)" d="M19.596 6.686c-0.065-0.012-0.132-0.015-0.198-0.010 0.080-0.297 0.137-0.717 0.035-0.955-0.152-0.355-1.523-0.203-1.98 0.405-0.368 0.491 1.042 0.75 1.605 0.831-0.071 0.36-0.502 0.263-0.635 0.463s-0.067 0.302 0 0.534c0.067 0.232-0.134 0.167-0.302 0.301s-0.385 0.318-0.084 0.452l1.675 0.301c0.033-0.061 0.056-0.126 0.070-0.194 0.011 0.003 0.022 0.007 0.033 0.009 0.044 0.012 0.090 0.019 0.135 0.022h0.022c0.114 0.002 0.225-0.041 0.308-0.12 0.279-0.259 0.265-0.736 0.214-1.057h0.292c0 0 0.401-1.033-1.191-0.982zM20.182 8.622c-0.060 0.058-0.141 0.087-0.224 0.083-0.060-0.003-0.119-0.016-0.175-0.039-0.012-0.054-0.042-0.103-0.085-0.138-0.201-0.167-0.368-0.302-0.235-0.437s0.101-0.301 0-0.437l-0.005-0.002c-0.022-0.033-0.019-0.077 0.009-0.105s0.072-0.033 0.105-0.011l0.207 0.137h0.567c0.050 0.292 0.073 0.731-0.164 0.95z"></path><path fill="#000" style="fill: var(--color1, #000)" d="M31.554 19.576c-0.277-1.053-0.886-1.799-1.717-2.102s-1.779-0.125-2.67 0.501c-0.172 0.121-0.337 0.254-0.491 0.398l-1.333-3.727c-0.258-0.717-0.873-1.246-1.622-1.396-0.092-0.018-0.185-0.031-0.279-0.037l0.082 0.036-0.1 0.109c0.061 0.003 0.121 0.010 0.18 0.019 0.735 0.113 1.349 0.619 1.601 1.318l0.872 2.438-0.031-0.018-3.685 6.198h-8.27c0.046-0.107 0.090-0.218 0.13-0.329 0.549-1.5 0.504-3.019-0.014-4.104l0.381-0.466-0.113-0.092-0.34 0.416c-0.317-0.592-0.784-1.037-1.379-1.254-1.692-0.617-3.789 0.845-4.673 3.261-0.357 0.976-0.463 1.961-0.35 2.828 0.166 1.279 0.807 2.304 1.815 2.672 0.083 0.030 0.168 0.056 0.254 0.076 0.049 0.012 0.097 0.023 0.149 0.031 0.134 0.023 0.27 0.035 0.407 0.035 0.196-0.001 0.392-0.023 0.583-0.066 0.563-0.126 1.124-0.427 1.632-0.869 0.575-0.5 1.084-1.181 1.453-1.99h8.416l3.681-6.191 0.438 1.216c-0.607 0.597-1.103 1.382-1.429 2.275-0.418 1.142-0.494 2.296-0.281 3.262 0.236 1.071 0.826 1.912 1.702 2.257l0.028 0.011 0.028 0.010c0.162 0.058 0.329 0.098 0.499 0.119 0.104 0.013 0.209 0.020 0.313 0.020 0.114-0 0.227-0.008 0.34-0.023 0.206-0.027 0.41-0.076 0.606-0.146 1.203-0.427 2.349-1.626 2.946-3.256 0.429-1.174 0.515-2.395 0.241-3.438zM14.107 19.003c0.474 1.044 0.504 2.496-0.022 3.931-0.049 0.129-0.097 0.256-0.152 0.379h-3.358l3.532-4.31zM9.599 26.108c-1.617-0.59-2.236-2.974-1.378-5.314 0.726-1.983 2.281-3.305 3.723-3.305 0.26-0.001 0.519 0.044 0.763 0.133 0.579 0.211 1.029 0.652 1.33 1.238l-3.771 4.598h3.601c-0.947 2.024-2.776 3.194-4.269 2.65zM31.176 22.963c-0.675 1.844-2.064 3.124-3.416 3.309-0.111 0.015-0.223 0.023-0.334 0.023-0.104 0-0.207-0.007-0.309-0.021-0.157-0.021-0.311-0.060-0.46-0.113-1.629-0.595-2.252-2.996-1.388-5.353 0.31-0.848 0.778-1.597 1.346-2.173l1.039 2.904 0.138-0.049-1.062-2.968c0.163-0.155 0.338-0.299 0.522-0.429 0.583-0.409 1.187-0.618 1.763-0.618 0.264-0.001 0.525 0.045 0.773 0.135 0.784 0.286 1.361 0.997 1.626 2.003 0.267 1.014 0.183 2.204-0.238 3.35z"></path><path fill="#000" style="fill: var(--color1, #000)" d="M22.755 13.522l-0.146-0.097v1.293h0.146v-1.197z"></path><path fill="#000" style="fill: var(--color1, #000)" d="M25.652 15.975h-3.5v0.146h3.5v-0.146z"></path><path fill="#000" style="fill: var(--color1, #000)" d="M20.909 24.083l-0.466-0.532-0.694 0.298-0.194-0.391-0.1-0.199-1.049 0.069 0.022 0.056 0.027 0.073 0.5 1.332 0.55-0.137-0.128-0.34 0.333 0.111 1.197-0.342zM19.312 24.552l-0.264 0.066-0.435-1.156 0.752-0.052 0.024 0.049 0.292 0.579 0.725-0.311 0.243 0.279-0.934 0.266-0.58-0.194 0.177 0.473z"></path><path fill="#000" style="fill: var(--color1, #000)" d="M21.074 24.102l-2.577 0.93 0.155 0.429 2.577-0.93-0.156-0.429z"></path><path fill="#000" style="fill: var(--color1, #000)" d="M13.112 12.567h-4.621v0.146h4.621v-0.146z"></path><path fill="#000" style="fill: var(--color1, #000)" d="M12.452 14.139h-2.64v0.146h2.64v-0.146z"></path><path fill="#000" style="fill: var(--color1, #000)" d="M12.096 16.217h-4.011v0.146h4.011v-0.146z"></path><path fill="#000" style="fill: var(--color1, #000)" d="M20.335 11.125l-0.527-2.33-0.142 0.032 0.54 2.386 2.29 1.441-0.521 0.612-2.76-0.986-0.649-2.645-0.142 0.035 0.243 0.986c-1.281 1.668-3.536 0.976-4.017 0.803l3.889-2.863-0.087-0.117-4.13 3.040 2.651 2.7 2.034-2.179 0.087 0.355 2.928 1.044 0.693-0.815-2.379-1.499zM16.968 14.005l-2.351-2.394c0.474 0.168 0.971 0.266 1.473 0.291 0.065 0.003 0.13 0.005 0.194 0.005 1.012 0 1.844-0.366 2.424-1.068l0.252 1.028-1.993 2.138z"></path><path fill="#000" style="fill: var(--color1, #000)" d="M25.547 14.238l0.816 2.226h3.092l1.037-2.12-4.945-0.106zM27.655 14.429l-0.033 0.026 0.213 0.271-0.907 0.714-0.593-1.039 1.322 0.028zM28.167 16.318h-0.889l0.114-0.065-0.392-0.686 0.924-0.728 0.709 0.902-0.495 0.551 0.029 0.026zM28.723 15.857l0.363 0.461h-0.778l0.415-0.461zM25.758 14.388l0.517 0.011-0.083 0.049 0.619 1.084-0.442 0.347 0.090 0.114 0.425-0.333 0.377 0.66h-0.796l-0.707-1.932zM29.364 16.318h-0.243l0.094-0.074-0.391-0.498 0.741-0.83-0.109-0.097-0.726 0.809-0.692-0.881 0.097-0.076-0.090-0.114-0.097 0.076-0.16-0.204 2.471 0.053-0.894 1.836z"></path><path fill="#000" style="fill: var(--color1, #000)" d="M17.017 6.904c-1.313-1.311-3.443-1.311-4.756 0l-1.278 1.276 3.685 3.679 0.103-0.103-2.781-2.777 1.813-1.439c0.432-0.342 0.524-0.96 0.21-1.413 0.207-0.040 0.417-0.061 0.627-0.061 0.853-0.002 1.672 0.336 2.274 0.94l1.532 1.531 0.103-0.103-1.532-1.53zM14.048 6.812c-0.024 0.241-0.145 0.463-0.336 0.613l-1.825 1.45-0.697-0.695 1.175-1.174c0.411-0.412 0.927-0.704 1.492-0.845 0.147 0.183 0.216 0.417 0.192 0.65z"></path><path fill="#fff" style="fill: var(--color2, #fff)" d="M19.4 16.396l-1.246 1.759 0.12 0.084 1.246-1.759-0.12-0.084z"></path><path fill="#fff" style="fill: var(--color2, #fff)" d="M22.021 16.185c-1.805-0.019-4.547-0.037-4.698-0.005 0.011-0.003 0.021-0.009 0.029-0.017l-0.103-0.103c0.032-0.032 0.053-0.053 2.43-0.040 1.161 0.006 2.334 0.019 2.343 0.019l-0.001 0.146z"></path><path fill="#fff" style="fill: var(--color2, #fff)" d="M20.661 22.182l-4.27-6.745 0.509-0.395 0.090 0.115-0.404 0.314 4.199 6.634-0.124 0.078z"></path><path fill="#fff" style="fill: var(--color2, #fff)" d="M14.506 17.727l-0.049-0.137c0.673-0.234 1.136-0.626 1.208-1.023 0.036-0.201-0.038-0.383-0.213-0.525-0.629-0.514-0.248-1.65 0.035-2.121 0.027-0.044 0.031-0.098 0.012-0.146-0.121-0.388-1.177-0.93-1.573-1.107l0.060-0.133c0.061 0.027 1.487 0.669 1.653 1.196 0.031 0.087 0.022 0.183-0.026 0.262-0.324 0.538-0.568 1.524-0.067 1.934 0.215 0.175 0.308 0.411 0.264 0.663-0.082 0.451-0.581 0.885-1.303 1.136z"></path><path fill="#fff" style="fill: var(--color2, #fff)" d="M16.544 21.323l-0.062-0.131c0.009-0.004 0.851-0.403 1.141-0.789 0.048-0.053 0.062-0.128 0.036-0.194-0.094-0.238-0.637-0.467-1.107-0.553-0.077-0.014-0.18-0.042-0.203-0.128-0.029-0.106 0.085-0.202 0.243-0.336 0.213-0.181 0.479-0.406 0.412-0.653-0.010-0.036-0.037-0.066-0.073-0.079-0.349-0.146-1.528 0.444-1.953 0.683l-0.071-0.127c0.162-0.092 1.604-0.889 2.080-0.69 0.078 0.030 0.137 0.096 0.159 0.177 0.092 0.336-0.226 0.605-0.457 0.802-0.073 0.062-0.172 0.146-0.192 0.185 0.027 0.012 0.055 0.021 0.084 0.025 0.417 0.076 1.085 0.309 1.215 0.643 0.044 0.113 0.023 0.241-0.054 0.334-0.313 0.414-1.16 0.815-1.196 0.832z"></path><path fill="#fff" style="fill: var(--color2, #fff)" d="M20.986 23.446c-0.007-0.011-0.672-1.072-1.155-1.313-0.141-0.070-0.176-0.059-0.178-0.058-0.021 0.035 0.031 0.234 0.068 0.379 0.046 0.169 0.084 0.341 0.113 0.515 0.015 0.097 0.022 0.21-0.060 0.256-0.11 0.062-0.256-0.059-0.546-0.299-0.329-0.271-0.778-0.643-1.264-0.788-0.197-0.059-0.34-0.045-0.426 0.042-0.221 0.224-0.069 0.894 0.009 1.133l-0.139 0.045c-0.012-0.039-0.301-0.947 0.026-1.28 0.126-0.129 0.319-0.155 0.572-0.079 0.513 0.154 0.977 0.536 1.315 0.816 0.138 0.114 0.308 0.254 0.376 0.278 0.002-0.033-0-0.067-0.006-0.1-0.028-0.169-0.065-0.336-0.11-0.501-0.073-0.281-0.116-0.449-0.016-0.53 0.084-0.067 0.215-0.016 0.333 0.042 0.52 0.26 1.186 1.321 1.215 1.366l-0.125 0.077z"></path><path fill="#fff" style="fill: var(--color2, #fff)" d="M20.988 20.486c-0.146-0.105-1.422-1.037-1.355-1.507 0.010-0.072 0.054-0.168 0.206-0.223 0.091-0.032 0.188-0.066 0.287-0.099 0.432-0.146 1.086-0.37 1.112-0.553 0.007-0.049-0.049-0.097-0.097-0.131-0.262-0.184-0.381-0.45-0.303-0.68 0.049-0.137 0.239-0.453 1.008-0.417l-0.007 0.146c-0.465-0.022-0.787 0.097-0.863 0.318-0.057 0.166 0.040 0.367 0.248 0.512 0.118 0.083 0.171 0.174 0.157 0.271-0.036 0.253-0.502 0.43-1.21 0.671-0.097 0.034-0.194 0.066-0.285 0.097s-0.107 0.076-0.111 0.107c-0.041 0.291 0.773 0.993 1.296 1.368l-0.084 0.12z"></path><path fill="#fff" style="fill: var(--color2, #fff)" d="M18.007 15.704c-0.080 0.002-0.159-0.019-0.227-0.062-0.323-0.206-0.194-0.841-0.186-0.868l0.142 0.029c-0.033 0.157-0.075 0.589 0.122 0.715 0.126 0.080 0.41 0.075 1.049-0.403l0.087 0.116c-0.421 0.315-0.747 0.471-0.987 0.471z"></path><path fill="#000" style="fill: var(--color1, #000)" d="M22.644 12.707l-0.156-0.068-0.006 0.009-0.085 0.123-0.325 0.471 0.072 0.049 0.956 0.636 0.67-0.729-1.125-0.491zM23.524 13.249l-0.1 0.109-0.347 0.378-0.8-0.533 0.236-0.339 0.028-0.041h0.005l0.897 0.388 0.082 0.039z"></path><path class="rec" fill="#426c93" style="fill: var(--color3, #426c93)" d="M8.189 6.424l-2.878 2.057 2.062 2.875 2.878-2.057-2.062-2.875z"></path><path class="rec" fill="#426c93" style="fill: var(--color3, #426c93)" d="M26.499 8.174l-1.309 0.936 0.938 1.307 1.309-0.936-0.938-1.307z"></path><path fill="#000" style="fill: var(--color1, #000)" d="M8.427 26.467c-8.298 0-8.385-0.053-8.427-0.078l0.075-0.125c-0.004-0.002-0.008-0.005-0.012-0.006 0.463 0.115 21.093 0.049 31.937-0.005v0.146c-0.079 0-8.021 0.039-15.886 0.057-3.133 0.007-5.656 0.011-7.686 0.011z"></path><path fill="#000" style="fill: var(--color1, #000)" d="M7.795 23.54c0 0-1.005 0.48-1.106 1.24s-0.508-0.304-1.118-0.152c-0.61 0.152-0.305 1.267-1.067 0.963s-1.473 0.253-2.386 0.761h7.922c0 0-1.747-0.098-2.245-2.811z"></path><path fill="#000" style="fill: var(--color1, #000)" d="M21.159 26.3c0 0 0.965-0.152 1.371-0.558s0.914 0.558 1.118 0.253c0.203-0.304 0.101-1.064 0.254-0.963s0.405 0.963 0.708 0.657c0.303-0.306-0.333-1.050 0.316-1.767 0 0 0.366 2.144 1.955 2.361l-5.722 0.016z"></path><path class="rec" fill="#000" style="fill: var(--color1, #000)" d="M8.731 10.391l-1.043-1.585-2.326 1.525 1.516 2.305 2.325-1.524-0.473-0.721zM5.565 10.373l2.080-1.365 0.966 1.468 0.389 0.593-2.081 1.365-1.354-2.061z"></path></symbol><symbol id="icon-modal-1" viewBox="0 0 32 32">
<path fill="#000" style="fill: var(--color1, #000)" d="M30.583 29.29h-26.631v0.174h26.631v-0.174z"></path><path fill="#000" style="fill: var(--color1, #000)" d="M12.993 22.311c0.231-1.803-0.608-4.801-0.91-5.625-0.281-0.768-0.59-1.925-0.596-2.466-0.001-0.036 0-0.073 0.003-0.109-0.002-0.097-0.033-0.191-0.090-0.269l-0.155 0.629-0.397-0.799 0.143-0.328c-0.043-0.044-0.087-0.088-0.132-0.131-0.315-0.299-0.644-0.581-0.988-0.846v-0.116l-3.177 0.756-0.017 0.013c-0.243 0.213-0.432 0.481-0.552 0.783-0.023 0.055-0.045 0.116-0.066 0.174l0.239 0.218-0.313 0.045c0 0.012-0.006 0.025-0.008 0.038l0.419 0.964-0.358 0.72c0.020 0.083 0.042 0.168 0.068 0.254 0.048 0.163 0.106 0.334 0.173 0.511 0.255 0.664 0.086 1.302-0.346 1.648s-1.12 1.822-0.301 2.777c0.819 0.954 0.689 2.125 0.346 2.863-0.335 0.716-0.913 1.718 0.276 3.007 0.036 0.038 0.073 0.077 0.112 0.116h1.853l0.010-0.027c0.008-0.020 0.020-0.050 0.034-0.089 0.148-0.377 0.622-1.581 0.946-2.268 0.255-0.541 0.62-1.68 0.733-3.072 0.020 0.029 0.039 0.058 0.058 0.088 0.166 0.236 0.346 0.451 0.505 0.66 0.578 0.756 0.282 0.938-0.020 2.501-0.227 1.172 0.353 1.798 0.657 2.035 0.054 0.044 0.112 0.083 0.173 0.116l1.56-0.058c0.009-0.018 0.017-0.037 0.025-0.058 0.258-0.711-0.069-3.399 0.091-4.652z"></path><path fill="#000" style="fill: var(--color1, #000)" d="M6.638 13.030v-1.099h0.173v0.879l2.892-0.676-0.269-0.788 0.163-0.057 0.332 0.971-3.292 0.769z"></path><path fill="#000" style="fill: var(--color1, #000)" d="M10.905 7.080c-0.267-0.276-0.591-0.489-0.949-0.623s-0.742-0.188-1.122-0.156l-0.902 0.076 0.014 0.174 0.902-0.076c0.355-0.030 0.713 0.019 1.048 0.144s0.637 0.324 0.886 0.582l3.852 3.973-2.352 2.423-1.335-1.882 1.228-0.942-2.307-2.144-0.404-1.32-0.165 0.052 1.098 3.597-4.333 1.079c0.033-0.854 0.145-3.814 0.115-3.964l-0.17 0.035c0.009 0.058 0 0.506-0.018 1.117l-0.028-0.018-1.788 2.755 1.864 0.997-0.861 2.22-3.825-2.065 2.594-5.078c0.145-0.285 0.353-0.533 0.608-0.725s0.55-0.322 0.863-0.38l1.092-0.207-0.032-0.174-1.092 0.209c-0.339 0.064-0.659 0.205-0.934 0.412s-0.501 0.476-0.658 0.785l-2.672 5.23 4.147 2.238 0.988-2.549-1.833-0.977 1.555-2.4c-0.025 0.814-0.062 1.842-0.094 2.649l-0.005 0.116 4.737-1.179-0.647-2.122 1.936 1.799-1.198 0.919 1.553 2.189 2.615-2.698-3.971-4.095z"></path><path fill="#000" style="fill: var(--color1, #000)" d="M6.688 14.318l-0.84-0.771-0.383 1.038 0.051 0.205 0.43 1.754 0.643-1.295-0.375-0.862 0.474-0.068zM6.399 15.243l-0.396 0.798-0.357-1.447 0.276-0.745 0.379 0.347-0.336 0.048 0.434 0.999z"></path><path fill="#000" style="fill: var(--color1, #000)" d="M11.184 12.080l-0.109 0.12-0.495 0.55 0.453 0.066-0.173 0.398-0.202 0.465 0.643 1.295 0.186-0.753 0.263-1.068 0.036-0.147-0.601-0.927zM11.401 13.843l-0.155 0.629-0.397-0.799 0.143-0.329 0.289-0.67-0.355-0.051 0.234-0.26 0.438 0.672-0.197 0.807z"></path><path fill="#fff" style="fill: var(--color2, #fff)" d="M7.072 27.233c-0.502-0.442-0.44-2.062-0.014-2.675 0.364-0.523 0.627-2.522-0.217-3.257-0.278-0.243-0.429-0.537-0.448-0.872-0.038-0.688 0.469-1.396 0.903-1.867 0.648-0.707 0.161-1.989 0.156-2.002l0.162-0.064c0.022 0.058 0.531 1.396-0.191 2.185-0.336 0.366-0.894 1.079-0.857 1.739 0.009 0.146 0.049 0.288 0.115 0.417s0.16 0.244 0.273 0.336c0.924 0.807 0.645 2.914 0.245 3.489-0.374 0.538-0.445 2.064-0.014 2.442l-0.114 0.129z"></path><path fill="#fff" style="fill: var(--color2, #fff)" d="M8.305 27.148l-0.156-0.077c1.213-2.501 1.627-4.646 1.761-6.004 0.173-1.738-0.032-2.95-0.26-3.459-0.526-1.178-0.137-2.671-0.12-2.733l0.168 0.045c-0.004 0.014-0.39 1.497 0.111 2.617 0.493 1.103 0.775 4.904-1.504 9.611z"></path><path fill="#000" style="fill: var(--color1, #000)" d="M7.833 28.825l0.693-1.803h-2.528l0.115 2.268 0.009 0.174h0.318l0.058-0.174 0.062-0.187 0.301 0.304h1.683v-0.581h-0.711zM6.484 28.78l-0.169 0.511h-0.029l-0.106-2.093h2.093l-0.693 1.803h0.791v0.233h-1.437l-0.45-0.453z"></path><path fill="#000" style="fill: var(--color1, #000)" d="M12.57 28.767l0.693-1.803h-2.528l0.12 2.326 0.006 0.116h0.318l0.12-0.362 0.302 0.304h1.681v-0.582h-0.711zM11.221 28.721l-0.169 0.511h-0.029l-0.106-2.093h2.093l-0.693 1.803h0.791v0.233h-1.437l-0.45-0.453z"></path><path fill="#426c93" style="fill: var(--color3, #426c93)" d="M6.969 8.782l-0.142-0.1c0.127-0.183 0.173-0.333 0.138-0.434-0.014-0.031-0.034-0.058-0.059-0.081s-0.055-0.039-0.087-0.048l0.042-0.169c0.059 0.017 0.114 0.047 0.16 0.087s0.082 0.092 0.106 0.149c0.059 0.159 0.006 0.361-0.158 0.597z"></path><path fill="#426c93" style="fill: var(--color3, #426c93)" d="M4.963 8.408c-0.383-0.129-0.512-0.504-0.52-0.523l0.164-0.058c0 0 0.108 0.31 0.404 0.411l-0.048 0.171z"></path><path fill="#426c93" style="fill: var(--color3, #426c93)" d="M3.905 10.588l-0.139-0.105c0.075-0.101 0.751-0.981 1.263-0.723l-0.077 0.156c-0.326-0.165-0.866 0.43-1.047 0.672z"></path><path fill="#426c93" style="fill: var(--color3, #426c93)" d="M3.558 9.575l-0.022-0.174c0.394-0.050 0.503-0.565 0.504-0.571l0.17 0.034c-0.005 0.027-0.133 0.645-0.652 0.711z"></path><path fill="#426c93" style="fill: var(--color3, #426c93)" d="M2.661 13.017c-0.078-0.157-0.355-0.229-0.455-0.243l0.024-0.174c0.018 0.003 0.451 0.068 0.585 0.338l-0.155 0.079z"></path><path fill="#426c93" style="fill: var(--color3, #426c93)" d="M2.55 11.891l-0.084-0.153c0.005-0.003 0.475-0.272 0.475-0.622h0.173c0 0.453-0.541 0.762-0.564 0.774z"></path><path fill="#426c93" style="fill: var(--color3, #426c93)" d="M4.333 12.716c-0.148-0.395-0.94-0.294-0.947-0.291l-0.023-0.174c0.038-0.005 0.937-0.116 1.132 0.407l-0.162 0.058z"></path><path fill="#426c93" style="fill: var(--color3, #426c93)" d="M4.067 14.286v-0.174c0.249 0 0.895-0.069 0.895-0.378h0.173c0 0.546-1.025 0.552-1.069 0.552z"></path><path fill="#426c93" style="fill: var(--color3, #426c93)" d="M3.403 13.64l-0.168-0.046c0.012-0.045 0.125-0.438 0.346-0.511 0.044-0.013 0.090-0.015 0.134-0.005s0.085 0.032 0.119 0.063l-0.109 0.136c-0.052-0.041-0.080-0.032-0.091-0.028-0.099 0.031-0.197 0.247-0.233 0.391z"></path><path fill="#426c93" style="fill: var(--color3, #426c93)" d="M7.534 11.183c-0.38 0-0.828-0.267-0.854-0.283l0.089-0.15c0.222 0.134 0.842 0.421 1.039 0.141l0.141 0.101c-0.099 0.141-0.251 0.191-0.415 0.191z"></path><path fill="#426c93" style="fill: var(--color3, #426c93)" d="M8.997 9.353l-0.155-0.078c0.009-0.018 0.014-0.038 0.015-0.058s-0.003-0.040-0.010-0.059c-0.072-0.197-0.455-0.399-0.597-0.461l0.068-0.161c0.058 0.026 0.578 0.258 0.693 0.561 0.015 0.041 0.022 0.085 0.020 0.129s-0.014 0.087-0.034 0.125z"></path><path fill="#426c93" style="fill: var(--color3, #426c93)" d="M7.874 10.070c-0.303 0-0.741-0.299-0.794-0.336l0.098-0.143c0.195 0.136 0.569 0.337 0.739 0.301 0.013-0.002 0.025-0.006 0.036-0.014s0.020-0.017 0.026-0.028l0.149 0.090c-0.019 0.031-0.044 0.058-0.074 0.080s-0.064 0.036-0.099 0.043c-0.026 0.006-0.053 0.008-0.080 0.008z"></path><path fill="#426c93" style="fill: var(--color3, #426c93)" d="M9.238 10.949l-0.173-0.013c0.004-0.058 0.047-0.563 0.289-0.761 0.037-0.031 0.081-0.053 0.127-0.066s0.095-0.016 0.143-0.009l-0.024 0.174c-0.024-0.004-0.050-0.003-0.073 0.004s-0.046 0.018-0.065 0.034c-0.156 0.125-0.215 0.501-0.224 0.635z"></path><path fill="#426c93" style="fill: var(--color3, #426c93)" d="M8.655 7.75c-0.024 0-0.048-0.004-0.070-0.013-0.178-0.066-0.255-0.378-0.269-0.44l0.169-0.038c0.026 0.116 0.097 0.291 0.16 0.315 0.005 0 0.019 0.007 0.050-0.016l0.104 0.139c-0.041 0.033-0.091 0.052-0.144 0.053z"></path><path fill="#426c93" style="fill: var(--color3, #426c93)" d="M10.509 7.511h-0.173c0-0.216-0.432-0.532-0.705-0.679l0.082-0.154c0.081 0.044 0.797 0.443 0.797 0.833z"></path><path fill="#426c93" style="fill: var(--color3, #426c93)" d="M11.165 9.313c-0.14-0.164-0.204-0.326-0.19-0.48 0.010-0.11 0.062-0.211 0.143-0.284l0.054 0.068 0.055 0.067c-0.047 0.044-0.075 0.104-0.080 0.168-0.008 0.105 0.041 0.222 0.149 0.349l-0.132 0.112z"></path><path fill="#426c93" style="fill: var(--color3, #426c93)" d="M13.272 10.632l-0.155-0.078c0.132-0.265-0.421-0.582-0.426-0.582l0.083-0.154c0.029 0.016 0.706 0.396 0.498 0.813z"></path><path fill="#426c93" style="fill: var(--color3, #426c93)" d="M11.863 10.19c-0.273-0.274-0.027-0.777-0.016-0.799l0.155 0.078c-0.058 0.116-0.169 0.444-0.016 0.597l-0.122 0.123z"></path><path fill="#426c93" style="fill: var(--color3, #426c93)" d="M11.693 11.938l-0.115-0.13c0.038-0.034 0.374-0.33 0.648-0.263 0.058 0.016 0.11 0.047 0.153 0.089s0.073 0.095 0.090 0.153l-0.162 0.058c-0.042-0.112-0.102-0.126-0.121-0.131-0.156-0.037-0.413 0.155-0.491 0.226z"></path><path fill="#426c93" style="fill: var(--color3, #426c93)" d="M12.344 12.785c-0.048 0-0.097-0.004-0.145-0.012l0.028-0.174c0.025 0.004 0.611 0.093 0.709-0.453l0.173 0.031c-0.090 0.485-0.483 0.608-0.766 0.608z"></path><path fill="#426c93" style="fill: var(--color3, #426c93)" d="M13.424 11.241l-0.113-0.133c0.025-0.022 0.256-0.214 0.475-0.169 0.052 0.011 0.101 0.035 0.142 0.069s0.073 0.078 0.094 0.127l-0.155 0.078c-0.010-0.025-0.026-0.048-0.046-0.065s-0.044-0.031-0.070-0.038c-0.116-0.023-0.277 0.087-0.329 0.131z"></path><path fill="#000" style="fill: var(--color1, #000)" d="M9.374 5.695c-0.098-0.071-0.202-0.132-0.312-0.182-0.115-0.053-0.115-0.053-0.115-0.271-0.007-0.187-0.045-0.371-0.112-0.546 0.070-0.291 0.12-1.067-1.352-1.065 0 0-0.523-0.13-0.618 0.281 0 0 0 0.005 0 0.008-0.089 0.42-0.581 0.291-0.741 0.515s-0.087 0.343-0.018 0.614c0.068 0.271-0.158 0.187-0.353 0.335s-0.449 0.349-0.111 0.515l1.026 0.218-0.189 0.375c-0.023 0.046-0.037 0.096-0.041 0.148s0.004 0.103 0.021 0.152c0.017 0.049 0.044 0.093 0.079 0.131s0.077 0.068 0.124 0.089l0.795 0.349c0.048 0.021 0.099 0.032 0.151 0.032 0.051-0 0.101-0.011 0.148-0.031s0.089-0.050 0.124-0.087c0.035-0.037 0.062-0.082 0.080-0.13s0.025-0.099 0.023-0.151l-0.046-0.868c0.044-0.006 0.086-0.019 0.126-0.037 0.133 0.004 0.404 0.006 0.506 0.006 0.555 0 0.857-0.065 0.901-0.195 0.017-0.050 0.013-0.125-0.098-0.205zM8.082 5.871c-0.034 0.031-0.075 0.055-0.119 0.069s-0.090 0.020-0.136 0.015c-0.069-0.006-0.136-0.024-0.199-0.052-0.012-0.061-0.044-0.117-0.091-0.157-0.223-0.199-0.408-0.359-0.252-0.507s0.125-0.342 0.015-0.499c-0.001-0.001-0.002-0.003-0.003-0.005-0.012-0.019-0.017-0.041-0.014-0.063s0.013-0.042 0.028-0.058c0.016-0.015 0.036-0.024 0.058-0.026s0.044 0.004 0.062 0.017l0.231 0.164 0.641 0.020c0 0.006 0 0.013 0 0.020-0 0.003-0 0.005 0 0.008v0.014c0 0.003 0 0.006 0 0.009 0.008 0.122 0 0.604-0.115 0.9-0.028 0.048-0.063 0.092-0.105 0.129zM7.725 7.179c-0.028 0.020-0.061 0.032-0.096 0.036s-0.069-0.002-0.101-0.016l-0.795-0.349c-0.025-0.011-0.048-0.027-0.067-0.048s-0.033-0.044-0.043-0.070c-0.009-0.026-0.013-0.054-0.011-0.082s0.009-0.055 0.022-0.080l0.211-0.415 0.693 0.147c0.039-0.067 0.068-0.139 0.085-0.215 0.047 0.016 0.094 0.028 0.142 0.036l0.047 0.878c0.002 0.034-0.005 0.069-0.020 0.101s-0.038 0.058-0.066 0.078zM8.303 5.914c0.016-0.029 0.030-0.059 0.043-0.090 0.177-0.299 0.173-0.716 0.134-1.020v-0.007l0.21 0.006c0.051 0.141 0.080 0.289 0.085 0.439 0 0.299 0.038 0.345 0.214 0.429 0.101 0.045 0.196 0.101 0.285 0.166l0.014 0.011c-0.127 0.055-0.578 0.078-0.988 0.064l0.003 0.003z"></path><path  class='bubble' d="M21.283 6.145c-0.074 0-0.147 0.022-0.209 0.064s-0.11 0.101-0.138 0.169c-0.028 0.069-0.036 0.145-0.021 0.218s0.050 0.141 0.103 0.193c0.053 0.053 0.119 0.089 0.192 0.104s0.148 0.007 0.217-0.021c0.068-0.029 0.127-0.077 0.168-0.139s0.063-0.135 0.063-0.21c-0-0.101-0.039-0.197-0.11-0.267s-0.166-0.111-0.266-0.111zM21.283 6.726c-0.040 0-0.079-0.012-0.112-0.034s-0.059-0.054-0.075-0.091c-0.015-0.037-0.020-0.078-0.012-0.118s0.027-0.076 0.055-0.104 0.064-0.048 0.104-0.056c0.039-0.008 0.080-0.004 0.117 0.012s0.068 0.041 0.091 0.075c0.022 0.033 0.034 0.073 0.034 0.113 0 0.054-0.021 0.106-0.059 0.144s-0.089 0.060-0.143 0.060z"></path><path class='bubble' fill="#000" style="fill: var(--color1, #000)" d="M16.372 6.959c-0.063 0-0.124 0.019-0.176 0.054s-0.093 0.085-0.117 0.144c-0.024 0.058-0.030 0.123-0.018 0.185s0.043 0.119 0.087 0.164c0.045 0.045 0.101 0.075 0.163 0.088s0.125 0.006 0.183-0.018c0.058-0.024 0.108-0.065 0.143-0.118s0.054-0.114 0.054-0.178c-0-0.085-0.034-0.166-0.093-0.226s-0.14-0.094-0.224-0.094zM16.372 7.424c-0.029 0-0.057-0.009-0.080-0.024s-0.042-0.039-0.053-0.065c-0.011-0.027-0.014-0.056-0.008-0.084s0.020-0.054 0.039-0.074 0.046-0.034 0.074-0.039c0.028-0.006 0.057-0.003 0.083 0.008s0.049 0.029 0.065 0.053c0.016 0.024 0.024 0.052 0.024 0.081 0 0.038-0.015 0.075-0.042 0.103s-0.064 0.043-0.102 0.043z"></path><path class='bubble' fill="#000" style="fill: var(--color1, #000)" d="M20.878 12.483c-0.109 0-0.215 0.032-0.305 0.093s-0.161 0.147-0.202 0.248c-0.041 0.101-0.052 0.212-0.031 0.319s0.073 0.206 0.15 0.283c0.077 0.077 0.174 0.13 0.281 0.151s0.217 0.010 0.317-0.031 0.186-0.113 0.246-0.203 0.092-0.198 0.092-0.307c-0-0.146-0.058-0.287-0.161-0.39s-0.242-0.162-0.388-0.162zM20.878 13.414c-0.074 0-0.147-0.022-0.209-0.064s-0.11-0.101-0.138-0.169c-0.028-0.069-0.036-0.145-0.021-0.218s0.050-0.141 0.103-0.193c0.053-0.053 0.119-0.089 0.192-0.104s0.148-0.007 0.217 0.021c0.068 0.029 0.127 0.077 0.168 0.139s0.063 0.135 0.063 0.21c-0 0.101-0.039 0.197-0.11 0.267s-0.166 0.11-0.266 0.111z"></path><path class='bubble' fill="#000" style="fill: var(--color1, #000)" d="M16.545 14.926c-0.109 0-0.215 0.033-0.305 0.093s-0.161 0.147-0.202 0.248c-0.041 0.101-0.053 0.212-0.031 0.319s0.073 0.206 0.15 0.283c0.077 0.077 0.174 0.13 0.281 0.151s0.217 0.010 0.317-0.031c0.101-0.042 0.186-0.113 0.246-0.203s0.092-0.198 0.092-0.307c-0-0.146-0.058-0.287-0.161-0.39s-0.242-0.162-0.388-0.162zM16.545 15.856c-0.074 0-0.147-0.022-0.209-0.064s-0.11-0.101-0.138-0.169c-0.028-0.069-0.036-0.145-0.021-0.218s0.050-0.141 0.103-0.193c0.053-0.053 0.119-0.089 0.192-0.104s0.148-0.007 0.217 0.021c0.069 0.029 0.127 0.077 0.169 0.139s0.063 0.135 0.063 0.21c-0 0.101-0.039 0.197-0.11 0.267s-0.166 0.11-0.266 0.111z"></path><path fill="#000" style="fill: var(--color1, #000)" d="M23.564 4.4h-4.359v-1.89h-0.173v1.89h-3.959v12.271h3.562l-1.997 12.706 0.173 0.027 0.018-0.114 1.983-12.62h0.603l-0.009 12.62v0.058h0.173v-0.058l0.008-12.62h0.719l2.047 12.779 0.173-0.028-2.043-12.751h3.082v-12.271zM23.391 16.496h-8.145v-11.922h8.145v11.922z"></path><path fill="#000" style="fill: var(--color1, #000)" d="M16.847 13.956c0.049 0.027 0.101 0.054 0.154 0.082 0.377 0.186 0.762 0.352 1.155 0.498l0.199 0.076c0.183 0.068 0.373 0.139 0.571 0.21l0.166 0.058 0.496 0.18c0.162 0.058 0.325 0.116 0.488 0.174l0.187 0.069c0.367 0.136 0.736 0.277 1.103 0.426 0.424 0.174 0.709 0.256 0.89 0.256 0.112 0 0.183-0.032 0.222-0.095 0.185-0.298-0.635-1.12-2.553-2.868l-0.51-0.464-0.115-0.107c-0.262-0.237-0.524-0.476-0.778-0.709 0.328-0.143 0.643-0.276 0.94-0.401l0.014-0.006c0.048-0.021 0.096-0.041 0.144-0.062 0.339-0.143 0.648-0.275 0.924-0.398 0.099-0.044 0.193-0.087 0.283-0.13 0.794-0.375 1.218-0.671 1.122-0.996l-0.166 0.050c0.063 0.211-0.372 0.48-1.061 0.803-0.081 0.039-0.166 0.078-0.254 0.116-0.266 0.119-0.561 0.245-0.874 0.378l-0.084 0.036-0.115 0.048c-0.26 0.11-0.532 0.227-0.817 0.349l-0.195 0.084-0.058-0.052c-0.473-0.437-0.909-0.852-1.254-1.208-0.395-0.407-0.555-0.86-0.475-1.343 0.132-0.797 0.884-1.574 1.653-2.178 0.046-0.036 0.092-0.072 0.138-0.106 0.527-0.397 1.084-0.751 1.665-1.061l-0.078-0.156c-0.593 0.313-1.161 0.672-1.698 1.076l-0.138 0.106c-0.793 0.623-1.572 1.435-1.713 2.29-0.090 0.541 0.086 1.043 0.52 1.494 0.346 0.358 0.785 0.775 1.259 1.214-0.359 0.157-0.733 0.326-1.119 0.507-0.693 0.326-1.006 0.63-0.99 0.957 0.017 0.29 0.293 0.548 0.752 0.804zM17.16 12.359c0.292-0.138 0.577-0.268 0.854-0.391l0.328-0.144c0.3 0.276 0.611 0.558 0.92 0.839l0.092 0.083 0.062 0.058 0.518 0.47c0.581 0.53 1.141 1.047 1.567 1.476 0.857 0.862 0.839 1.030 0.827 1.054-0.003 0.004-0.098 0.096-0.9-0.23-0.399-0.162-0.801-0.315-1.2-0.462l-0.184-0.072-0.457-0.166-0.168-0.058h-0.006l-0.297-0.112-0.166-0.058c-0.145-0.052-0.289-0.106-0.427-0.158-0.065-0.024-0.13-0.048-0.194-0.073-0.43-0.158-0.853-0.338-1.264-0.541-0.053-0.027-0.105-0.054-0.153-0.081-0.392-0.217-0.635-0.432-0.645-0.645-0.009-0.243 0.291-0.509 0.894-0.793z"></path><path fill="#000" style="fill: var(--color1, #000)" d="M23.246 29.174c0 0 0.404-1.454 1.733-1.803s2.773 0.93 3.235 0c0.462-0.93-0.462-3.198 0.866-2.733s0.404 2.966 1.56 3.315 1.098 1.512 1.098 1.512h-8.481l-0.010-0.291z"></path><path fill="#000" style="fill: var(--color1, #000)" d="M1.67 29.465c0.173 0.058 3.772 0 3.772 0s0.156-1.047-0.884-1.338c-1.039-0.291-0.866-0.233-0.924-1.687s-0.346-3.722-1.213-2.559c-0.866 1.163-0.404 2.559-1.213 3.257s-1.155 1.047-1.155 2.326h1.618z"></path><path fill="#426c93" class='rec' style="fill: var(--color3, #426c93)" d="M32.448 14.593l-3.436 2.473-2.457-3.459 3.436-2.473 2.456 3.459z"></path><path fill="#426c93" style="fill: var(--color3, #426c93)" d="M20.821 10.75l-0.104-0.070v-0.073c-0.015-0.365-0.1-0.724-0.25-1.057 0.188-0.174 0.37-0.343 0.542-0.501 0.887-0.814 1.423-1.308 1.299-1.65-0.073-0.201-0.353-0.301-0.908-0.324-0.875-0.036-1.751 0.021-2.613 0.17l-0.439-0.558c-0.027-0.034-0.053-0.067-0.077-0.098-0.105-0.131-0.184-0.233-0.239-0.297-0.096-0.116-0.136-0.165-0.205-0.112s-0.042 0.098 0.089 0.278l0.017-0.013c0.047 0.058 0.111 0.138 0.2 0.251l0.114 0.141c0.095 0.12 0.21 0.267 0.346 0.447-0.809 0.174-1.439 0.456-1.548 0.872s0.311 0.872 1.248 1.352c0.455 0.233 0.878 0.458 1.265 0.676-0.437 0.438-0.851 0.9-1.24 1.382-0.104 0.131-0.207 0.265-0.308 0.401-0.338 0.455-0.642 0.934-0.91 1.434-0.076 0.143-0.139 0.273-0.191 0.392-0.025 0.058-0.047 0.11-0.067 0.162-0.248 0.647-0.134 0.93 0.031 1.047 0.091 0.063 0.2 0.094 0.311 0.090 0.315 0 0.737-0.191 1.165-0.485 0.058-0.039 0.115-0.080 0.173-0.123 0.181-0.136 0.355-0.282 0.52-0.438 0.071-0.066 0.14-0.135 0.207-0.205 0.004-0.004 0.008-0.008 0.012-0.012 0.050-0.052 0.1-0.106 0.149-0.16 0.059-0.066 0.117-0.133 0.173-0.201 0.058-0.070 0.115-0.143 0.17-0.216 0.023-0.029 0.045-0.058 0.065-0.089s0.053-0.073 0.078-0.11l0.023-0.032c0.441-0.647 0.751-1.385 0.79-2.137 0.77 0.527 1.257 1.022 1.365 1.512 0.071 0.325-0.023 0.647-0.289 0.989l0.136 0.107c0.298-0.383 0.404-0.756 0.32-1.132-0.116-0.538-0.615-1.058-1.424-1.613zM20.538 10.564c-0.213-0.136-0.443-0.275-0.69-0.417 0.164-0.162 0.325-0.317 0.484-0.465 0.118 0.28 0.188 0.579 0.206 0.882zM21.394 7.249c0.566 0.024 0.72 0.127 0.751 0.209 0.083 0.233-0.536 0.802-1.253 1.461-0.161 0.148-0.329 0.303-0.505 0.465-0.088-0.167-0.191-0.326-0.307-0.475-0.462-0.601-0.853-1.105-1.171-1.512 0.821-0.136 1.654-0.186 2.485-0.149zM18.376 9.352c-0.842-0.431-1.243-0.83-1.159-1.152 0.089-0.34 0.686-0.602 1.499-0.765 0.3 0.385 0.699 0.899 1.228 1.583 0.119 0.154 0.224 0.318 0.311 0.492-0.184 0.174-0.373 0.355-0.564 0.545-0.402-0.225-0.839-0.459-1.315-0.703zM19.861 12.806c-0.022 0.034-0.044 0.068-0.067 0.101s-0.050 0.073-0.075 0.109l-0.025 0.035c-0.034 0.048-0.070 0.096-0.106 0.143-0.058 0.073-0.115 0.143-0.173 0.213-0.036 0.044-0.074 0.087-0.112 0.13-0.053 0.058-0.107 0.116-0.162 0.174l-0.048 0.050c-0.234 0.24-0.489 0.459-0.761 0.653-0.058 0.043-0.119 0.083-0.176 0.12-0.538 0.345-0.99 0.465-1.174 0.329-0.151-0.11-0.14-0.402 0.021-0.827 0.020-0.052 0.041-0.107 0.066-0.162 0.053-0.122 0.115-0.252 0.19-0.391 0.314-0.584 0.677-1.139 1.085-1.66 0.077-0.098 0.154-0.195 0.231-0.291 0.374-0.456 0.763-0.876 1.146-1.26 0.267 0.153 0.515 0.303 0.743 0.45l0.080 0.052c0 0.035-0.001 0.070-0.003 0.105-0.036 0.676-0.297 1.337-0.678 1.928z"></path><path class='rec' fill="#000" style="fill: var(--color1, #000)" d="M30.574 16.655l-1.239-1.9-2.764 1.827 1.802 2.762 2.763-1.827-0.562-0.864zM26.811 16.633l2.472-1.635 1.148 1.759 0.462 0.711-2.474 1.635-1.608-2.47z"></path></symbol></defs></svg>